<?xml version="1.0" encoding="UTF-8" standalone="no"?>
<svg
   version="1.1"
   id="Layer_1"
   x="0px"
   y="0px"
   width="2000"
   viewBox="0 0 2000 2000"
   enable-background="new 0 0 1024 1024"
   xml:space="preserve"
   height="2000"
   sodipodi:docname="combined_exported_2.svg"
   inkscape:version="1.4.4 (dcaf3e7, 2026-05-05)"
   xmlns:inkscape="http://www.inkscape.org/namespaces/inkscape"
   xmlns:sodipodi="http://sodipodi.sourceforge.net/DTD/sodipodi-0.dtd"
   xmlns="http://www.w3.org/2000/svg"
   xmlns:svg="http://www.w3.org/2000/svg"
   xmlns:rdf="http://www.w3.org/1999/02/22-rdf-syntax-ns#"
   xmlns:cc="http://creativecommons.org/ns#"><sodipodi:namedview
   id="namedview1"
   pagecolor="#ffffff"
   bordercolor="#000000"
   borderopacity="0.25"
   inkscape:showpageshadow="2"
   inkscape:pageopacity="0.0"
   inkscape:pagecheckerboard="0"
   inkscape:deskcolor="#d1d1d1"
   inkscape:zoom="0.2800824"
   inkscape:cx="680.15698"
   inkscape:cy="840.82399"
   inkscape:window-width="1920"
   inkscape:window-height="940"
   inkscape:window-x="0"
   inkscape:window-y="31"
   inkscape:window-maximized="1"
   inkscape:current-layer="Layer_1" /><defs
   id="defs34" />
<path
   fill="#000000"
   opacity="1"
   stroke="none"
   d="m 1730.034,836.06101 c -3.3843,46.56089 -12.1154,91.04554 -23.8447,134.88506 -25.8254,96.52473 -67.8158,185.54203 -127.7139,265.60863 -89.7259,119.9376 -203.2433,208.2396 -345.8508,257.4567 -76.718,26.4771 -155.5729,37.7592 -236.50185,34.4651 -20.28429,-0.8258 -40.55598,-3.2993 -60.69063,-6.0574 -18.11413,-2.4813 -24.4723,-13.7395 -18.168,-31.0787 10.13303,-27.8699 28.56243,-49.207 56.9795,-57.7348 35.04888,-10.5179 59.61988,-31.1222 78.50668,-62.1405 24.5891,-40.3831 63.4121,-59.8516 109.5559,-65.8971 28.5433,-3.7395 57.3093,-6.2215 83.4944,-20.2459 45.2699,-24.2461 66.0698,-63.5924 72.2862,-112.9083 8.4767,-67.2462 40.5733,-120.4634 96.3837,-159.3095 17.3973,-12.1092 35.5139,-23.28904 51.197,-37.73755 36.3972,-33.53225 54.4131,-76.18508 60.5281,-124.30647 9.2298,-72.63324 -5.6193,-138.53614 -57.542,-192.84992 -28.0953,-29.38921 -63.9403,-45.57927 -102.5394,-56.28892 -33.4313,-9.27591 -64.9172,-22.42108 -91.6679,-45.26714 -34.3614,-29.34538 -53.3664,-66.21843 -55.6179,-111.59685 -1.5417,-31.07215 -5.9799,-61.08303 -32.7304,-82.24166 -19.8215,-15.67794 -43.1237,-21.09482 -67.5229,-23.25054 -37.8842,-3.34718 -74.8795,-10.36652 -108.8374,-28.33664 -49.86964,-26.39052 -81.95993,-66.08421 -85.28214,-123.9244 -4.19098,-72.96449 49.52676,-135.380132 124.21174,-147.262991 50.3005,-8.003129 97.9434,3.419267 144.5816,20.149364 90.7735,32.562501 171.5133,81.534067 238.8856,151.064007 34.9592,36.07866 61.6533,77.49052 76.8251,126.0035 10.9295,34.94754 32.1075,62.9554 64.2635,80.7965 94.3579,52.35231 133.5388,139.1628 151.3806,239.55804 6.612,37.20568 9.3835,74.86835 9.2478,112.57916 -0.078,21.54438 -0.4365,43.25592 -3.8175,65.86922 z"
   id="path1"
   style="fill:#84a07c;fill-opacity:1;stroke-width:2.54679" />
<path
   fill="#000000"
   opacity="1"
   stroke="none"
   d="m 1222.8667,1101.0107 c 1.2599,9.9961 6.066,14.6163 14.9358,17.6669 20.2987,6.9817 31.3168,24.8853 29.6805,45.366 -1.4219,17.7984 -15.739,34.6754 -32.4699,38.2755 -20.1653,4.339 -39.3397,-4.2497 -48.6069,-21.7722 -9.3443,-17.6684 -6.0743,-39.2935 9.1362,-53.6426 5.3365,-5.0342 6.9514,-9.2362 5.0412,-16.4938 -5.8191,-22.1078 -10.9428,-44.4083 -15.8459,-66.7417 -1.4817,-6.7485 -5.7028,-9.9076 -11.2509,-12.6283 -36.9417,-18.115 -73.6195,-36.78933 -110.8723,-54.23724 -12.3876,-5.80175 -17.0946,-13.55963 -18.5122,-27.07472 -4.2407,-40.42252 -9.8172,-80.72308 -15.805,-120.93235 -1.6059,-10.78427 1.0754,-17.73819 9.5826,-23.97247 31.148,-22.82608 61.8602,-46.25062 93.1491,-68.87909 8.7624,-6.33695 12.6136,-12.53687 11.0897,-24.09426 -3.5961,-27.27123 -5.6293,-54.76743 -7.5975,-82.2227 -0.5894,-8.22366 -3.8592,-12.3401 -10.9959,-16.42041 -16.8272,-9.62078 -25.4682,-24.74084 -23.0533,-44.56516 2.34,-19.2101 13.3757,-31.59583 31.9266,-37.1164 19.5808,-5.82727 40.6988,3.67386 50.219,22.45892 9.6919,19.12479 4.8284,44.39798 -12.9157,55.6049 -10.3085,6.5106 -11.3164,13.34989 -10.0257,24.12983 2.9187,24.38058 4.5423,48.93051 6.1502,73.44724 0.753,11.4811 4.3147,19.28216 15.8612,24.63852 35.0136,16.24259 69.263,34.1252 104.1306,50.69499 8.7698,4.16769 13.3026,9.90324 14.1779,19.14861 1.1579,12.23355 2.5618,24.44984 3.4057,36.70485 0.5155,7.48576 3.1687,10.81451 11.2113,9.04254 27.3156,-6.01784 54.6617,-11.91537 82.0849,-17.41658 6.9531,-1.39488 9.6429,-5.463 11.7986,-11.53211 7.844,-22.08371 26.4449,-34.19493 46.6067,-30.86152 21.8358,3.61035 38.5052,22.91733 38.2674,44.32244 -0.2358,21.21608 -16.0386,39.7126 -37.8393,43.38534 -16.0054,2.69634 -29.3755,-3.00893 -39.3509,-15.56774 -4.1574,-5.23432 -7.8916,-7.7043 -14.933,-6.06081 -26.4123,6.16495 -52.8716,12.21764 -79.5062,17.30087 -11.4279,2.18102 -14.9044,7.5438 -12.8048,18.40146 3.0649,15.84945 3.8927,31.95152 5.0735,48.03472 0.6474,8.82017 -2.4636,14.33102 -9.2212,19.31112 -30.0539,22.14849 -59.8048,44.70861 -89.9203,66.77201 -5.9009,4.3232 -8.1572,8.3431 -6.237,15.8764 5.1239,20.1024 9.3328,40.4378 14.2352,61.649 M 1099.0106,791.05943 c -12.2865,9.06368 -24.3522,18.45038 -36.9479,27.062 -6.8403,4.67661 -9.3551,10.25088 -8.2248,18.26003 5.0845,36.02929 10.1568,72.06209 14.821,108.14694 0.8313,6.43223 3.9977,9.65878 9.372,12.22508 34.0611,16.26427 68.1313,32.51455 101.9871,49.19882 6.5906,3.2478 11.4457,3.045 17.3171,-1.3827 28.1102,-21.19934 56.3828,-42.18782 84.8303,-62.93198 5.7902,-4.22224 6.2808,-9.04655 5.5883,-15.43732 -4.0162,-37.07264 -7.85,-74.16703 -11.354,-111.29101 -0.6548,-6.93559 -4.0812,-10.69062 -9.7999,-13.49795 -32.7392,-16.07183 -65.5485,-32.00695 -98.0887,-48.47323 -8.0641,-4.08063 -13.9773,-2.80318 -20.8114,2.45763 -15.4553,11.89765 -31.4212,23.13218 -48.6891,35.66369 z"
   id="path2"
   style="stroke-width:2.54679;fill:#575d90;fill-opacity:1" />


<path
   fill="#000000"
   opacity="1"
   stroke="none"
   d="m 555.26947,393.61539 c -68.66851,92.4013 -108.28132,195.19604 -120.80375,308.59525 -7.06539,63.98231 -30.94405,119.46581 -81.97339,161.1062 -1.64267,1.34022 -3.18574,2.82798 -4.93846,4.00368 -8.07445,5.41582 -16.121,6.11695 -22.58123,-2.10359 -6.34395,-8.07267 -4.79147,-16.74036 2.8007,-22.59124 52.96127,-40.81508 69.56315,-98.18745 77.68088,-161.17963 19.01705,-147.56842 80.39098,-275.04242 187.75106,-378.98105 91.2351,-88.32747 200.78718,-140.22429 325.91753,-159.88895 5.01612,-0.78833 10.13173,-0.93854 15.19903,-1.40614 10.80543,-0.99707 17.55376,4.10637 18.51309,14.59564 0.97324,10.64059 -5.6986,16.78221 -15.74307,17.97741 -23.61689,2.81015 -46.88973,7.34342 -69.87942,13.2274 -90.45438,23.15098 -170.40242,65.88319 -239.94252,128.352 -26.32286,23.64615 -49.69362,49.81129 -72.00045,78.29302 z"
   id="path5"
   style="stroke-width:2.54679;fill:#575d90;fill-opacity:1" />
<path
   fill="#000000"
   opacity="1"
   stroke="none"
   d="m 799.29455,311.73162 c -141.60421,67.41745 -226.39002,179.73392 -266.16736,328.39291 -8.89968,33.26061 -10.65636,67.75894 -16.95085,101.45479 -17.13106,91.70694 -61.14296,166.39988 -140.45942,218.20266 -16.04477,10.47915 -24.96484,10.86417 -31.26095,1.62967 -6.32484,-9.27671 -2.63911,-17.58196 13.28635,-27.95143 76.18301,-49.60448 117.67566,-121.54711 128.66823,-209.93589 11.92934,-95.92161 38.48227,-185.9923 93.31956,-266.14264 79.55439,-116.27704 189.01524,-187.65354 327.67152,-213.75102 11.64129,-2.19111 23.3954,-3.87242 35.15492,-5.3218 13.18881,-1.6256 20.7095,3.04846 22.08393,13.02962 1.51935,11.03289 -4.62673,17.90342 -18.03612,19.48397 -50.89954,5.99951 -99.89103,18.81822 -147.30981,40.90916 z"
   id="path6"
   style="stroke-width:2.54679;fill:#575d90;fill-opacity:1" />

<path
   fill="#000000"
   opacity="1"
   stroke="none"
   d="m 972.76542,544.80453 c -15.13714,4.72867 -30.13559,4.16736 -44.56297,8.12524 -82.72394,22.6939 -142.31596,90.38298 -152.04899,175.56356 -8.40459,73.5544 -21.68814,145.7582 -50.14361,214.60002 -48.18514,116.57325 -129.33055,202.56735 -240.56406,260.95425 -9.45095,4.9607 -17.98909,5.7573 -24.40283,-4.1574 -5.43991,-8.4091 -1.6103,-17.8725 9.31963,-23.8663 52.79905,-28.9535 101.23917,-63.5488 141.45656,-108.8466 58.56573,-65.9638 93.59606,-143.71257 114.40589,-228.56532 10.21254,-41.64219 13.28397,-84.44689 20.45487,-126.57064 18.12105,-106.44826 101.1377,-184.54326 208.09434,-196.9515 9.65676,-1.12031 19.19725,-1.08386 24.38144,8.97731 4.09308,7.94331 1.11523,14.77529 -6.39027,20.73738 z"
   id="path8"
   style="stroke-width:2.54679;fill:#575d90;fill-opacity:1" />

<path
   fill="#000000"
   opacity="1"
   stroke="none"
   d="m 852.80556,810.59752 c -16.95522,103.49547 -48.39038,200.51198 -107.78696,286.72528 -48.28001,70.0776 -111.61899,123.7815 -185.19486,165.8245 -6.6264,3.7868 -13.28094,7.556 -20.12379,10.9239 -9.29792,4.5763 -17.81884,3.4511 -22.8232,-6.2528 -5.05805,-9.8082 -0.64256,-17.3473 8.34249,-22.1662 29.21552,-15.669 57.14223,-33.2704 83.66407,-53.2176 80.69844,-60.694 135.90873,-140.0618 171.87417,-233.58853 25.8796,-67.29884 40.20408,-137.1698 47.9468,-208.75801 6.21835,-57.4944 31.92169,-103.26819 86.42327,-128.93587 6.84425,-3.2232 14.22065,-5.74231 21.62312,-7.24506 9.07309,-1.84215 15.95977,2.34409 18.70379,11.29738 2.69554,8.79501 -1.82994,15.13415 -9.51989,18.40848 -9.34207,3.97781 -19.21553,6.71764 -27.9149,12.17636 -36.73323,23.0489 -53.21931,57.7873 -57.86963,99.56693 -2.01348,18.08987 -4.79398,36.09441 -7.34448,55.24124 z"
   id="path10"
   style="stroke-width:2.54679;fill:#575d90;fill-opacity:1" />
<path
   fill="#000000"
   opacity="1"
   stroke="none"
   d="m 598.46548,764.96806 c -23.54663,126.74908 -88.63372,223.16027 -200.4612,286.81374 -9.36809,5.3324 -17.26843,3.5719 -22.93355,-5.4816 -5.07117,-8.1042 -1.73131,-16.8487 8.9508,-22.993 33.69048,-19.3788 64.13083,-42.79178 90.45795,-71.47523 51.13138,-55.70756 80.50414,-121.95767 93.72111,-195.67534 7.53604,-42.03188 9.73956,-84.96544 22.96061,-126.0387 29.46583,-91.54059 80.22489,-167.79244 159.17334,-224.07419 15.70002,-11.19257 24.34111,-11.58823 30.89647,-2.00696 6.35143,9.28291 2.23365,17.95915 -12.40554,28.65147 -91.02143,66.48138 -142.92451,156.63948 -160.92225,267.11232 -3.46979,21.29769 -6.18058,42.71911 -9.43774,65.16749 z"
   id="path11"
   style="stroke-width:2.54679;fill:#575d90;fill-opacity:1" />
<path
   fill="#000000"
   opacity="1"
   stroke="none"
   d="m 792.22195,1132.3705 c 64.71623,-96.369 97.7868,-203.26145 115.19057,-315.93941 3.22909,-20.90621 4.16742,-42.17174 9.60095,-62.73269 3.2808,-12.41496 8.13232,-24.12625 16.37588,-34.13857 8.00346,-9.72064 17.88052,-12.18754 25.45338,-6.61909 7.6992,5.66148 8.26074,15.3778 0.15049,25.7457 -14.29473,18.27407 -14.2129,40.38708 -17.12304,61.56995 -16.37143,119.16846 -48.2078,233.03121 -113.27875,335.76141 -55.16306,87.0882 -130.58848,151.8501 -220.50095,200.7099 -10.3391,5.6185 -19.47831,3.4354 -24.08766,-5.2932 -4.57006,-8.654 -0.85209,-17.4497 10.45223,-23.6659 53.51161,-29.4253 102.01214,-65.4481 144.52388,-109.3936 19.51933,-20.1778 36.5337,-42.3805 53.24296,-66.0045 z"
   id="path12"
   style="stroke-width:2.54679;fill:#575d90;fill-opacity:1" />
<path
   fill="#000000"
   opacity="1"
   stroke="none"
   d="m 888.77827,44.128499 c 30.27685,-5.507712 59.71249,-8.994017 89.33596,-10.828971 13.67792,-0.847221 21.41477,4.634785 22.16657,15.26658 0.7842,11.08893 -6.0953,17.494231 -19.32546,18.360178 -136.15125,8.911935 -258.71167,54.226834 -366.95172,137.519774 -46.61973,35.87481 -87.82205,77.19684 -122.94944,124.4871 -8.4252,11.3424 -18.7575,14.00906 -26.8585,7.36696 -7.51027,-6.15773 -7.17652,-15.96351 1.24112,-27.08567 C 572.68357,167.51011 714.15461,80.363415 888.77827,44.128499 Z"
   id="path13"
   style="stroke-width:2.54679;fill:#575d90;fill-opacity:1" />
<path
   fill="#000000"
   opacity="1"
   stroke="none"
   d="m 742.4499,529.95559 c 66.51456,-70.60605 147.12268,-107.26639 243.59949,-107.92882 16.99361,-0.11647 24.19491,4.62051 24.21531,15.5268 0.021,10.84993 -7.8526,16.04609 -23.84396,16.50185 -83.33244,2.37456 -155.94244,30.60308 -214.16752,91.31049 -44.79474,46.70453 -71.63144,102.79977 -79.95138,166.97382 -6.27346,48.38844 -13.12882,96.53228 -28.16733,143.13592 -4.29468,13.30899 -11.92828,18.8148 -21.72841,15.7224 -9.0693,-2.86188 -12.37754,-11.66144 -8.19609,-24.45467 15.50298,-47.43269 20.7964,-96.76539 27.93972,-145.79764 9.42444,-64.68957 36.44182,-121.35857 80.30017,-170.99015 z"
   id="path14"
   style="stroke-width:2.54679;fill:#575d90;fill-opacity:1" />


<path
   fill="#000000"
   opacity="1"
   stroke="none"
   d="m 686.01153,1393.7285 c -10.49109,4.7522 -17.84388,1.6424 -21.90042,-7.3987 -4.26358,-9.5024 0.73462,-16.2193 8.7984,-21.1508 34.43093,-21.0572 67.58523,-43.8093 98.0819,-70.432 53.13944,-46.389 94.3522,-101.901 127.36093,-163.8529 20.18961,-37.893 37.16906,-77.1768 50.43872,-118.0203 3.28773,-10.1195 8.77993,-16.82028 20.29425,-14.12458 9.69117,2.26888 13.41268,11.57818 9.31283,23.98558 -52.43362,158.6798 -141.52795,288.5818 -292.38661,370.9937 z"
   id="path17"
   style="stroke-width:2.54679;fill:#575d90;fill-opacity:1" />
<path
   fill="#000000"
   opacity="1"
   stroke="none"
   d="m 361.3512,607.01787 c -7.7389,36.28049 -13.13334,71.81846 -15.69958,107.77575 -0.82505,11.55995 -7.70328,19.16563 -16.62783,18.81186 -9.44335,-0.37448 -15.93341,-8.58213 -15.09503,-21.10099 3.51885,-52.54438 12.7443,-104.12742 27.01867,-154.81883 15.57212,-55.30022 36.77485,-108.27293 65.16262,-158.29246 1.46348,-2.5787 2.75195,-5.28607 4.46621,-7.68775 5.56446,-7.79617 12.88763,-11.72499 21.83169,-6.44522 8.69303,5.13165 9.71598,13.59532 5.84506,22.25481 -3.27581,7.32817 -7.62271,14.1725 -11.39221,21.28582 -29.73786,56.11724 -51.20313,115.28917 -65.5096,178.21701 z"
   id="path18"
   style="stroke-width:2.54679;fill:#575d90;fill-opacity:1" />
<path
   fill="#000000"
   opacity="1"
   stroke="none"
   d="m 959.3463,1266.1576 c -45.28291,68.5949 -101.10798,125.2821 -170.08647,168.6794 -2.15377,1.3549 -4.26026,2.7879 -6.44695,4.0863 -11.59607,6.8848 -20.12328,5.9493 -25.23407,-3.1932 -5.89773,-10.55 -0.77625,-17.9878 7.98009,-23.4799 81.23674,-50.9539 143.56045,-119.6984 191.1621,-202.4218 7.24688,-12.5938 15.83231,-15.884 24.54273,-10.504 8.29446,5.1233 9.3584,14.92 2.33818,26.9107 -7.71185,13.1718 -15.85056,26.0938 -24.25561,39.9225 z"
   id="path19"
   style="stroke-width:2.54679;fill:#575d90;fill-opacity:1" />
<path
   fill="#000000"
   opacity="1"
   stroke="none"
   d="m 414.66053,1127.2785 c -6.81776,-13.4841 -0.1677,-20.5515 10.25379,-26.2835 49.06868,-26.9882 93.02464,-60.3882 128.77966,-103.85289 15.90179,-19.33061 29.80379,-40.09235 42.37202,-61.74515 6.71771,-11.57353 15.00828,-15.16748 23.43224,-10.30839 8.39144,4.84034 10.02679,14.54844 3.97933,25.51799 -43.87312,79.58284 -107.74879,138.38994 -187.64091,180.56634 -7.76471,4.0991 -14.57579,3.5589 -21.17613,-3.8944 z"
   id="path20"
   style="stroke-width:2.54679;fill:#575d90;fill-opacity:1" />
<path
   fill="#000000"
   opacity="1"
   stroke="none"
   d="m 938.44019,1388.0817 c 12.00985,-14.3261 23.40064,-27.9949 34.83602,-41.6266 8.15192,-9.7179 16.67634,-11.9268 23.94609,-5.4812 8.6226,7.6452 7.467,16.5518 1.1437,24.9691 -30.98281,41.243 -66.6147,77.906 -108.34993,108.3812 -11.2469,8.2123 -19.8614,7.7221 -25.74376,-0.2475 -6.06781,-8.2209 -3.44542,-17.5067 7.62628,-25.7481 23.87469,-17.772 45.75531,-37.7298 66.5416,-60.2469 z"
   id="path21"
   style="stroke-width:2.54679;fill:#575d90;fill-opacity:1" />
<path
   fill="#000000"
   opacity="1"
   stroke="none"
   d="m 1005.8506,347.88967 c -3.1617,9.95054 -10.1524,13.18641 -18.85591,13.51161 -45.30131,1.69287 -89.16046,10.60227 -131.70322,26.13519 -10.09354,3.68525 -18.71832,2.47402 -23.5527,-8.0184 -4.30539,-9.34445 0.46463,-17.78328 12.49541,-22.41127 44.71242,-17.20018 91.20453,-26.10909 138.92051,-28.66828 16.11181,-0.86415 20.77511,3.4745 22.69591,19.45115 z"
   id="path22"
   style="stroke-width:2.54679;fill:#575d90;fill-opacity:1" />
<path
   fill="#000000"
   opacity="1"
   stroke="none"
   d="m 1266.5177,479.44215 c -4.8864,-4.87651 -5.4903,-9.71584 -0.9056,-13.71424 5.5193,-4.81353 9.7494,-12.72195 18.1649,-12.09479 6.0869,0.45364 10.8187,6.2624 7.1476,11.63242 -5.3466,7.82113 -11.4512,16.81857 -24.4069,14.17661 z"
   id="path23"
   style="stroke-width:2.54679;fill:#575d90;fill-opacity:1" />
<path
   fill="#000000"
   opacity="1"
   stroke="none"
   d="m 1224.5309,500.50893 c 4.545,-6.8905 10.3884,-11.05957 16.3259,-15.08252 4.012,-2.71833 7.9824,-2.60743 11.3026,1.20764 3.3571,3.85741 2.8306,8.00819 -0.5015,11.35069 -3.8519,3.86403 -8.0513,7.4756 -12.5026,10.62806 -8.4271,5.96833 -11.9875,4.12836 -14.6244,-8.10387 z"
   id="path24"
   style="stroke-width:2.54679;fill:#575d90;fill-opacity:1" />
<path
   fill="#000000"
   opacity="1"
   stroke="none"
   d="m 1194.0437,522.74027 c 3.0708,-2.37858 5.4008,-4.20599 7.7774,-5.97057 4.2931,-3.18777 8.5447,-3.84621 12.2282,0.81134 3.53,4.46348 2.4947,8.70131 -1.3508,12.39114 -2.4335,2.3351 -5.0295,4.51986 -7.6926,6.59246 -4.6588,3.62595 -9.5392,8.55528 -15.3714,2.42119 -6.3062,-6.63286 -1.6763,-11.40224 4.4092,-16.24556 z"
   id="path25"
   style="stroke-width:2.54679;fill:#575d90;fill-opacity:1" />
<path
   fill="#000000"
   opacity="1"
   stroke="none"
   d="m 1316.3379,1211.3329 c 6.1837,4.3767 11.805,8.8662 6.3877,15.8852 -5.6972,7.3817 -11.443,1.6272 -16.2947,-2.0568 -4.8603,-3.6904 -11.8684,-7.6188 -6.9723,-15.184 5.09,-7.8648 10.8974,-2.8384 16.8793,1.3556 z"
   id="path26"
   style="stroke-width:2.54679;fill:#575d90;fill-opacity:1" />
<path
   fill="#000000"
   opacity="1"
   stroke="none"
   d="m 1552.8583,819.25284 c -6.923,1.44733 -12.9639,2.56558 -15.864,-4.76877 -1.5564,-3.93701 -0.5672,-7.90034 3.3171,-9.72937 6.3545,-2.99244 13.2742,-6.83485 20.126,-2.28399 6.1767,4.10229 2.9702,11.72102 -7.5791,16.78213 z"
   id="path27"
   style="stroke-width:2.54679;fill:#575d90;fill-opacity:1" />
<path
   fill="#000000"
   opacity="1"
   stroke="none"
   d="m 1572.6991,800.72686 c 4.759,-6.58325 11.2937,-7.78833 17.5158,-7.38971 7.6455,0.48967 10.4135,5.99485 6.8812,12.62147 -3.4156,6.40762 -10.7689,6.4405 -16.9255,6.36658 -6.1377,-0.0737 -8.6095,-4.5796 -7.4715,-11.59834 z"
   id="path28"
   style="stroke-width:2.54679;fill:#575d90;fill-opacity:1" />
<path
   fill="#000000"
   opacity="1"
   stroke="none"
   d="m 1269.405,1186.7853 c 11.6689,-5.5442 17.402,2.4872 22.0413,9.4475 3.3905,5.0864 -0.8574,9.8576 -6.5566,10.8479 -8.4782,1.4735 -17.909,-10.3357 -15.4847,-20.2954 z"
   id="path29"
   style="stroke-width:2.54679;fill:#575d90;fill-opacity:1" />
<path
   fill="#000000"
   opacity="1"
   stroke="none"
   d="m 1513.2247,808.82422 c 7.6359,-1.84263 13.1903,-1.09225 13.9493,7.15995 0.6627,7.20333 -4.4233,9.00406 -10.3144,10.36358 -6.449,1.48811 -12.5451,1.66852 -14.6313,-5.64337 -2.2281,-7.80981 3.8836,-10.14061 10.9964,-11.88016 z"
   id="path30"
   style="stroke-width:2.54679;fill:#575d90;fill-opacity:1" />
<path
   fill="#000000"
   opacity="1"
   stroke="none"
   d="m 1345.2715,1232.9722 c 6.5478,5.0951 13.1689,9.8579 5.5993,17.582 -5.2837,5.3916 -10.0218,0.2803 -14.1906,-2.8416 -4.4087,-3.3017 -8.9128,-7.2867 -5.1615,-13.5331 3.2915,-5.4811 8.102,-4.9496 13.7528,-1.2073 z"
   id="path31"
   style="stroke-width:2.54679;fill:#575d90;fill-opacity:1" />
<path
   fill="#000000"
   opacity="1"
   stroke="none"
   d="m 1227.2179,798.52204 c 8.3878,4.30673 15.9973,8.06635 23.3922,12.20908 4.2933,2.40524 7.8441,5.75302 4.7531,11.30035 -2.8749,5.15948 -7.6343,5.14549 -12.1784,2.9556 -24.0728,-11.60152 -48.0895,-23.32219 -72.0189,-35.21633 -4.8212,-2.3964 -8.7256,-6.36656 -5.8019,-12.27441 3.3237,-6.7158 8.88,-5.03598 14.1931,-2.42284 15.6038,7.67463 31.1957,15.37312 47.6608,23.44855 z"
   id="path32"
   style="stroke-width:2.54679;fill:#575d90;fill-opacity:1" />
<path
   fill="#000000"
   opacity="1"
   stroke="none"
   d="m 1097.0284,929.02471 c -0.7324,5.93816 -3.0518,9.08428 -8.3319,8.70646 -5.238,-0.37477 -7.161,-4.27089 -7.7401,-8.64864 -3.5445,-26.78584 -6.9294,-53.5929 -10.3118,-80.4 -0.6678,-5.29121 1.2895,-9.74255 6.721,-10.51721 6.3786,-0.90972 8.8205,3.69986 9.5352,9.33374 3.3988,26.79411 6.7837,53.5899 10.1276,81.52565 z"
   id="path33"
   style="stroke-width:2.54679;fill:#575d90;fill-opacity:1" />
<path
   fill="#000000"
   opacity="1"
   stroke="none"
   d="m 1211.2703,955.37129 c 14.0519,-10.29268 27.3733,-20.04452 40.7509,-29.71845 4.5708,-3.30521 9.6824,-7.04337 14.2521,-0.65176 4.0308,5.63783 1.1742,10.21184 -3.9417,13.92787 -19.1763,13.92803 -38.2649,27.97684 -57.3962,41.96675 -4.6514,3.40141 -9.9262,6.68125 -14.5345,0.97067 -5.2498,-6.5054 0.059,-10.91673 4.7878,-14.67737 4.9657,-3.94841 10.2358,-7.51366 16.0816,-11.81771 z"
   id="path34"
   style="stroke-width:2.54679;fill:#575d90;fill-opacity:1" />
<metadata
   id="metadata4"><rdf:RDF><cc:Work
       rdf:about=""><cc:license
         rdf:resource="http://creativecommons.org/licenses/by/4.0/" /></cc:Work><cc:License
       rdf:about="http://creativecommons.org/licenses/by/4.0/"><cc:permits
         rdf:resource="http://creativecommons.org/ns#Reproduction" /><cc:permits
         rdf:resource="http://creativecommons.org/ns#Distribution" /><cc:requires
         rdf:resource="http://creativecommons.org/ns#Notice" /><cc:requires
         rdf:resource="http://creativecommons.org/ns#Attribution" /><cc:permits
         rdf:resource="http://creativecommons.org/ns#DerivativeWorks" /></cc:License></rdf:RDF></metadata><text
   xml:space="preserve"
   style="font-style:normal;font-variant:normal;font-weight:normal;font-stretch:normal;font-size:579.23px;font-family:Manrope;-inkscape-font-specification:Manrope;writing-mode:lr-tb;direction:ltr;fill:#28170b;stroke-width:0.905048"
   x="91.296638"
   y="1969.397"
   id="text1"><tspan
     id="tspan1"
     x="91.296638"
     y="1969.397"
     style="font-size:579.23px;stroke-width:0.905048"><tspan
       style="fill:#575d90;fill-opacity:1"
       id="tspan2">Pro</tspan><tspan
       style="fill:#84a07c;fill-opacity:1"
       id="tspan6">LIF</tspan></tspan></text><text
   xml:space="preserve"
   style="font-size:640px;font-family:Manrope;-inkscape-font-specification:Manrope;writing-mode:lr-tb;direction:ltr;fill:#84a07c;fill-opacity:1"
   x="1581.6774"
   y="1331.7509"
   id="text3"><tspan
     sodipodi:role="line"
     id="tspan3"></tspan></text><text
   xml:space="preserve"
   style="font-size:640px;font-family:Manrope;-inkscape-font-specification:Manrope;writing-mode:lr-tb;direction:ltr;fill:#84a07c;fill-opacity:1"
   x="-949.72052"
   y="2127.9453"
   id="text4"><tspan
     sodipodi:role="line"
     id="tspan4"></tspan></text></svg>
